<svg width="90" height="90" viewBox="0 0 90 90" fill="none" xmlns="http://www.w3.org/2000/svg">
<path d="M80.037 62.8437L86.9438 88.9449C87.0991 89.5781 87.7199 90.0002 88.4183 90.0002C88.5735 90.0002 88.6511 90.0002 88.8064 89.9299C89.66 89.7188 90.1256 89.0153 89.9704 88.2414L83.0636 62.0698C83.0636 61.9994 83.0636 61.9291 82.986 61.9291C80.8907 56.7932 75.924 53.1349 70.1036 52.1499C70.6469 53.2052 71.1901 54.2605 71.5781 55.3862C75.3807 56.5822 78.5625 59.326 80.037 62.8437ZM1.19062 89.9299C1.34583 89.9299 1.42343 90.0002 1.57864 90.0002C2.27708 90.0002 2.89792 89.5781 3.05313 88.9449L9.95995 62.8437C11.4344 59.326 14.6162 56.5822 18.4189 55.3862C18.8069 54.2605 19.3501 53.2052 19.8934 52.1499C14.073 53.1349 9.1063 56.7932 7.01097 61.9291C7.01097 61.9994 6.93337 62.0698 6.93337 62.0698L0.0265453 88.2414C-0.128664 89.0153 0.414569 89.7891 1.19062 89.9299Z" fill="#008738"/>
<path d="M20.5917 59.1851C19.1172 59.5368 17.8755 60.5218 17.3323 61.8585C17.0995 62.351 16.7114 63.1249 16.3234 63.9691C14.5385 67.3461 12.2104 71.9191 13.6849 74.9443C14.0729 75.7886 15.0041 76.8439 16.9443 77.3363C17.0995 77.3363 17.1771 77.4067 17.3323 77.4067C18.0307 77.4067 18.6516 76.9846 18.8068 76.3514C19.0396 75.5775 18.574 74.8036 17.7203 74.6629C16.8667 74.4518 16.5562 74.1001 16.4786 73.8186C15.5474 71.9894 17.7203 67.7682 19.0396 65.2355C19.5052 64.3209 19.8932 63.547 20.2037 62.9138C20.5917 61.9992 21.4453 61.9289 21.6781 61.9289C21.911 61.9289 22.7646 61.9992 23.1526 62.9138C23.3855 63.547 23.7735 64.3209 24.3167 65.2355C25.636 67.7682 27.8089 71.9894 26.8777 73.8186C26.7225 74.1001 26.4896 74.4518 25.636 74.6629C24.7823 74.8739 24.3167 75.6478 24.5495 76.3514C24.7823 77.1253 25.636 77.5474 26.412 77.3363C28.3522 76.8439 29.2834 75.7886 29.6714 74.9443C31.2235 71.9191 28.8178 67.3461 27.0329 63.9691C26.5672 63.1249 26.1792 62.4213 26.024 61.9289C25.5584 60.8032 24.7047 59.959 23.6183 59.5368C25.0152 53.4161 29.361 48.421 35.259 45.6772C36.2678 46.3807 37.4319 46.9435 38.6736 47.3656C36.7335 47.9988 34.9486 48.9134 33.3965 50.1094C33.3189 50.1798 33.1636 50.2501 33.086 50.3205C31.5339 51.5165 30.1371 52.9939 29.1282 54.6121C29.4386 54.6121 29.6714 54.5417 29.9819 54.5417L43.7179 89.0854C43.9507 89.6482 44.4939 90 45.1924 90C45.8908 90 46.4341 89.6482 46.6669 89.0854L60.4029 54.5417C60.7133 54.6121 60.9461 54.6121 61.2566 54.6121C60.1701 52.9939 58.8508 51.5869 57.2987 50.3205C57.2211 50.2501 57.0659 50.1798 56.9883 50.1094C55.4362 48.9838 53.6513 48.0692 51.7112 47.3656C52.9529 46.8732 54.1169 46.3103 55.1258 45.6772C61.4118 48.5617 65.9128 54.1196 66.8441 60.6625C64.2831 61.366 62.343 63.4766 62.343 66.0797C62.343 69.1753 65.1368 71.708 68.5514 71.708C71.966 71.708 74.7598 69.1753 74.7598 66.0797C74.7598 63.4063 72.6645 61.155 69.9483 60.5921C69.017 53.3457 64.2831 47.1546 57.5315 43.7072C61.7998 39.6267 63.8175 33.8577 64.8264 29.5662C65.9905 24.5007 67.4649 14.5105 62.4206 7.47508C59.2388 3.32421 54.5049 0.861833 48.1414 0.158296C46.046 -0.0527653 43.9507 -0.0527653 41.8554 0.158296C35.4918 0.861833 30.7579 3.32421 27.8089 7.54544C23.3855 13.8069 24.0063 22.3901 25.0928 27.8073C25.8688 32.0989 27.8089 39.0639 32.7756 43.7776C26.4896 46.9435 21.9886 52.5718 20.5917 59.1851ZM71.4228 66.0797C71.4228 67.6275 70.0259 68.8939 68.3186 68.8939C66.6113 68.8939 65.2144 67.6275 65.2144 66.0797C65.2144 64.532 66.6113 63.2656 68.3186 63.2656C70.0259 63.2656 71.4228 64.532 71.4228 66.0797ZM39.6048 70.7231L36.1126 61.8585L39.372 60.4514L39.6048 62.6324C39.6824 63.1249 39.9929 63.547 40.5361 63.7581L39.6048 70.7231ZM35.0262 59.2554L32.8532 53.7678C33.4741 53.4864 34.0949 53.1347 34.7157 52.7829L41.7002 56.4413L35.0262 59.2554ZM45.0372 84.4421L41.933 76.6328L43.6403 63.9691H46.5117L48.219 76.6328L45.0372 84.4421ZM42.321 59.2554L45.0372 58.0594L47.7533 59.2554L47.5205 61.155H42.5538L42.321 59.2554ZM50.4695 70.7231L49.5382 63.8284C50.0039 63.6174 50.3919 63.1952 50.4695 62.7028L50.7023 60.5218L53.9617 61.9289L50.4695 70.7231ZM57.2211 53.7678L55.0482 59.2554L48.3742 56.4413L55.3586 52.7829C55.9794 53.1347 56.6003 53.4864 57.2211 53.7678ZM53.0305 50.7426L45.0372 54.8935L37.0439 50.7426C37.8975 49.7577 38.5184 48.7024 38.9064 47.5064C40.4585 48.0692 42.1658 48.421 44.0283 48.5617C44.4163 48.5617 44.7267 48.632 45.1148 48.632C45.5028 48.632 45.8132 48.632 46.2012 48.5617C48.0638 48.421 49.7711 48.0692 51.3232 47.5064C51.6336 48.632 52.2544 49.7577 53.0305 50.7426ZM27.6537 23.5861C27.1881 18.9427 27.4209 13.2441 30.4475 9.02286C32.8532 5.57553 36.8111 3.53527 42.2434 2.97245C44.1059 2.76138 45.9684 2.76138 47.7533 2.97245C53.1857 3.60563 57.1435 5.64589 59.5493 9.09322C62.6534 13.5255 62.8863 19.5056 62.343 24.2896C62.1878 23.9379 61.955 23.5861 61.7998 23.3047C60.0149 20.4905 59.394 18.5206 59.006 16.8321C58.7732 15.9879 58.23 15.214 57.3763 14.8622C56.9107 14.6512 56.3675 14.5105 55.8242 14.5105C55.4362 14.5105 54.9706 14.5808 54.5826 14.7215C52.5648 15.4251 49.5382 16.3397 46.046 16.41H44.0283C40.5361 16.2693 37.4319 15.4251 35.4918 14.7215C34.6381 14.3697 33.6293 14.4401 32.7756 14.8622C31.922 15.2843 31.3011 15.9879 31.0683 16.8321C30.6027 18.591 29.9042 20.0684 28.3522 22.5308C28.0417 22.8122 27.8089 23.164 27.6537 23.5861ZM29.4386 32.2396C29.2834 30.6918 29.361 26.4002 30.9907 23.8675C32.7756 21.1237 33.5517 19.4352 34.0949 17.395C34.0949 17.395 34.0949 17.3246 34.1725 17.3246H34.3277C36.7335 18.2392 40.4585 19.2242 44.882 19.2242H45.0372C49.5382 19.2242 53.3409 18.1688 55.8242 17.3246H55.9794C56.057 17.3246 56.057 17.395 56.057 17.395C56.6779 19.998 57.6091 22.1087 59.2388 24.6414C60.9461 27.3148 60.8685 31.1139 60.7909 32.0989C58.8508 38.079 54.7378 45.1847 45.9684 45.8179C45.4252 45.8882 44.882 45.8882 44.3387 45.8179C35.5694 45.1143 31.3787 38.1493 29.4386 32.2396ZM17.8755 82.9646C17.0219 82.9646 16.3234 83.5978 16.3234 84.3717V88.5929C16.3234 89.3668 17.0219 90 17.8755 90C18.7292 90 19.4276 89.3668 19.4276 88.5929V84.3717C19.4276 83.5978 18.7292 82.9646 17.8755 82.9646ZM70.6467 84.3717V88.5929C70.6467 89.3668 71.3452 90 72.1988 90C73.0525 90 73.7509 89.3668 73.7509 88.5929V84.3717C73.7509 83.5978 73.0525 82.9646 72.1988 82.9646C71.3452 82.9646 70.6467 83.5978 70.6467 84.3717Z" fill="#008738"/>
<path d="M60.5583 80.8539C61.412 80.8539 62.1104 80.2207 62.1104 79.4468V77.3362H64.4385C65.2922 77.3362 65.9906 76.703 65.9906 75.9292C65.9906 75.1553 65.2922 74.5221 64.4385 74.5221H62.1104V72.4115C62.1104 71.6376 61.412 71.0044 60.5583 71.0044C59.7047 71.0044 59.0062 71.6376 59.0062 72.4115V74.5221H56.6781C55.8244 74.5221 55.126 75.1553 55.126 75.9292C55.126 76.703 55.8244 77.3362 56.6781 77.3362H59.0062V79.4468C59.0062 80.2207 59.7047 80.8539 60.5583 80.8539Z" fill="#008738"/>
</svg>
