<svg width="35" height="35" viewBox="0 0 35 35" fill="none" xmlns="http://www.w3.org/2000/svg">
<path d="M31.8184 9.54545C31.0671 9.54664 30.3405 9.81343 29.767 10.2987C29.1934 10.7839 28.8099 11.4563 28.6843 12.197H24.9244C23.659 12.1984 22.4459 12.7017 21.5511 13.5964C20.6564 14.4912 20.1531 15.7043 20.1517 16.9697V27.8409C20.1517 29.4583 19.5091 31.0095 18.3654 32.1532C17.2217 33.2969 15.6706 33.9394 14.0531 33.9394C12.4357 33.9394 10.8845 33.2969 9.74082 32.1532C8.59712 31.0095 7.9546 29.4583 7.9546 27.8409V23.8636C7.9546 23.8541 7.9493 23.8461 7.9493 23.8371C9.82104 23.7034 11.5728 22.8663 12.8527 21.494C14.1325 20.1217 14.8456 18.3159 14.8486 16.4394V3.18182C14.8477 2.47885 14.5681 1.80492 14.071 1.30784C13.574 0.810771 12.9 0.531145 12.1971 0.530303H10.0758C10.0758 0.389658 10.02 0.254773 9.92051 0.155322C9.82105 0.055871 9.68617 0 9.54552 0C9.40488 0 9.26999 0.055871 9.17054 0.155322C9.07109 0.254773 9.01521 0.389658 9.01521 0.530303V1.59091C9.01521 1.73155 9.07109 1.86644 9.17054 1.96589C9.26999 2.06534 9.40488 2.12121 9.54552 2.12121C9.68617 2.12121 9.82105 2.06534 9.92051 1.96589C10.02 1.86644 10.0758 1.73155 10.0758 1.59091H12.1971C12.6189 1.59133 13.0233 1.75908 13.3215 2.05734C13.6198 2.3556 13.7876 2.76001 13.788 3.18182V16.4394C13.788 18.1271 13.1175 19.7458 11.9241 20.9392C10.7307 22.1326 9.11205 22.803 7.42429 22.803C5.73654 22.803 4.11791 22.1326 2.92449 20.9392C1.73107 19.7458 1.06061 18.1271 1.06061 16.4394V3.18182C1.06103 2.76001 1.22878 2.3556 1.52705 2.05734C1.82531 1.75908 2.22972 1.59133 2.65153 1.59091H4.77276C4.77276 1.73155 4.82863 1.86644 4.92808 1.96589C5.02754 2.06534 5.16242 2.12121 5.30307 2.12121C5.44371 2.12121 5.5786 2.06534 5.67805 1.96589C5.7775 1.86644 5.83337 1.73155 5.83337 1.59091V0.530303C5.83337 0.389658 5.7775 0.254773 5.67805 0.155322C5.5786 0.055871 5.44371 0 5.30307 0C5.16242 0 5.02754 0.055871 4.92808 0.155322C4.82863 0.254773 4.77276 0.389658 4.77276 0.530303H2.65153C1.94856 0.531145 1.27462 0.810771 0.777546 1.30784C0.28047 1.80492 0.000842052 2.47885 0 3.18182V16.4394C0.00300134 18.3159 0.716066 20.1217 1.99591 21.494C3.27576 22.8663 5.02755 23.7034 6.89929 23.8371C6.89929 23.8461 6.89399 23.8541 6.89399 23.8636V27.8409C6.89399 29.7396 7.64825 31.5606 8.99085 32.9031C10.3335 34.2457 12.1544 35 14.0531 35C15.9519 35 17.7728 34.2457 19.1154 32.9031C20.458 31.5606 21.2123 29.7396 21.2123 27.8409V16.9697C21.2134 15.9855 21.6049 15.042 22.3008 14.3461C22.9967 13.6502 23.9402 13.2587 24.9244 13.2576H28.6843C28.7857 13.8553 29.0559 14.4117 29.463 14.861C29.8701 15.3103 30.3971 15.6339 30.982 15.7936C31.5669 15.9533 32.1853 15.9425 32.7642 15.7624C33.3432 15.5824 33.8586 15.2406 34.2497 14.7773C34.6409 14.314 34.8914 13.7486 34.9719 13.1476C35.0523 12.5467 34.9593 11.9353 34.7038 11.3854C34.4483 10.8356 34.0409 10.3703 33.5297 10.0443C33.0185 9.71827 32.4247 9.5452 31.8184 9.54545ZM31.8184 14.8485C31.3989 14.8485 30.9887 14.7241 30.6399 14.491C30.2911 14.2579 30.0192 13.9266 29.8586 13.539C29.6981 13.1514 29.6561 12.7249 29.7379 12.3134C29.8198 11.902 30.0218 11.524 30.3185 11.2273C30.6151 10.9307 30.9931 10.7287 31.4046 10.6468C31.8161 10.565 32.2426 10.607 32.6302 10.7675C33.0178 10.9281 33.3491 11.2 33.5821 11.5488C33.8152 11.8976 33.9396 12.3077 33.9396 12.7273C33.9391 13.2897 33.7154 13.8289 33.3177 14.2266C32.92 14.6243 32.3808 14.8479 31.8184 14.8485Z" fill="#008738"/>
<path d="M2.65161 10.6061C2.65161 13.1531 6.66338 16.0247 7.12104 16.3439C7.21005 16.4059 7.31591 16.4391 7.42437 16.4391C7.53284 16.4391 7.6387 16.4059 7.72771 16.3439C8.18536 16.0247 12.1971 13.1531 12.1971 10.6061C12.1971 10.0495 12.022 9.50712 11.6965 9.05568C11.371 8.60425 10.9117 8.2667 10.3837 8.09087C9.85567 7.91503 9.28569 7.90984 8.75455 8.07602C8.2234 8.2422 7.75803 8.57132 7.42437 9.01675C7.09072 8.57132 6.62534 8.2422 6.0942 8.07602C5.56305 7.90984 4.99308 7.91503 4.46505 8.09087C3.93702 8.2667 3.47772 8.60425 3.15224 9.05568C2.82676 9.50712 2.65161 10.0495 2.65161 10.6061ZM6.89407 10.6061C6.89407 10.7467 6.94994 10.8816 7.04939 10.981C7.14884 11.0805 7.28373 11.1364 7.42437 11.1364C7.56502 11.1364 7.6999 11.0805 7.79936 10.981C7.89881 10.8816 7.95468 10.7467 7.95468 10.6061C7.95468 10.1841 8.12229 9.77947 8.42065 9.48112C8.719 9.18277 9.12366 9.01515 9.5456 9.01515C9.96754 9.01515 10.3722 9.18277 10.6706 9.48112C10.9689 9.77947 11.1365 10.1841 11.1365 10.6061C11.1365 12.162 8.68756 14.3113 7.42437 15.2547C6.16118 14.3113 3.71222 12.162 3.71222 10.6061C3.71222 10.1841 3.87984 9.77947 4.17819 9.48112C4.47655 9.18277 4.88121 9.01515 5.30315 9.01515C5.72508 9.01515 6.12974 9.18277 6.4281 9.48112C6.72645 9.77947 6.89407 10.1841 6.89407 10.6061Z" fill="#008738"/>
</svg>
