<svg width="24" height="28" viewBox="0 0 24 28" fill="none" xmlns="http://www.w3.org/2000/svg">
<path d="M12 0.5C7.20182 0.5 3.19995 4.32166 3.19995 9.20117C3.19995 11.0575 3.76411 12.7129 4.84683 14.264L11.3265 24.2614C11.6409 24.7474 12.3597 24.7464 12.6734 24.2614L19.1812 14.23C20.2406 12.7491 20.8 11.0103 20.8 9.20117C20.8 4.40335 16.8523 0.5 12 0.5ZM12 13.1562C9.79446 13.1562 7.99995 11.3819 7.99995 9.20117C7.99995 7.02045 9.79446 5.24609 12 5.24609C14.2054 5.24609 16 7.02045 16 9.20117C16 11.3819 14.2054 13.1562 12 13.1562Z" fill="#008738"/>
<path d="M18.2541 18.6777L14.2258 24.905C13.183 26.5124 10.8111 26.5072 9.77344 24.9065L5.73856 18.6794C2.18848 19.491 0 20.9777 0 22.7544C0 25.8373 6.18283 27.5005 12 27.5005C17.8172 27.5005 24 25.8373 24 22.7544C24 20.9764 21.8085 19.4889 18.2541 18.6777Z" fill="#008738"/>
</svg>
