<svg width="40" height="35" viewBox="0 0 40 35" fill="none" xmlns="http://www.w3.org/2000/svg">
<path d="M26.1573 15.4328L17.3203 9.84698C16.8122 9.52576 16.2116 9.53777 15.7136 9.87866C15.2152 10.2199 14.918 10.8228 14.918 11.4919V22.5678C14.918 23.2338 15.2134 23.8356 15.7084 24.1772C15.9669 24.3555 16.2534 24.4452 16.5406 24.4452C16.8093 24.4447 17.0737 24.367 17.31 24.2192L26.1472 18.7296C26.4046 18.5697 26.6199 18.3325 26.7703 18.043C26.9207 17.7535 27.0006 17.4225 27.0017 17.0849C27.0029 16.7472 26.925 16.4153 26.7764 16.1245C26.6277 15.8337 26.4138 15.5947 26.1573 15.4328ZM17.262 21.1745V12.8966L23.8667 17.0714L17.262 21.1745Z" fill="#008738"/>
<path d="M39.7055 8.26062L39.7037 8.2395C39.6698 7.86757 39.3326 4.55924 37.9404 2.87647C36.3312 0.897209 34.5068 0.656774 33.6294 0.54152C33.5631 0.533068 33.4969 0.523892 33.4308 0.513993L33.3608 0.5056C28.0729 0.0613723 20.0868 0.000722027 20.0069 0.000361014L19.9998 0L19.9928 0.000361014C19.9129 0.000722027 11.9268 0.0613723 6.59112 0.5056L6.52065 0.513993C6.46386 0.522838 6.40128 0.530961 6.33323 0.540167C5.46597 0.655691 3.66114 0.896577 2.04741 2.94731C0.721401 4.61213 0.338122 7.84961 0.298748 8.21342L0.294216 8.26062C0.282263 8.41541 0 12.1 0 15.7989V19.2567C0 22.9558 0.282263 26.6403 0.294216 26.7954L0.296326 26.8186C0.330232 27.1846 0.667104 30.4324 2.05287 32.1158C3.56599 34.0287 5.4791 34.2819 6.50815 34.418C6.67081 34.4394 6.81088 34.4578 6.90635 34.4772L6.99885 34.492C10.0521 34.8276 19.6251 34.9929 20.0309 34.9996L20.0432 35L20.0554 34.9996C20.1353 34.9993 28.1211 34.9386 33.4092 34.4944L33.479 34.486C33.5459 34.4757 33.621 34.4666 33.7033 34.4567C34.5658 34.3509 36.3608 34.1313 37.9523 32.1083C39.2783 30.4433 39.6619 27.2057 39.7009 26.8423L39.7055 26.7951C39.7174 26.6399 40 22.9557 40 19.2567V15.7989C39.9997 12.0999 39.7174 8.41577 39.7055 8.26062ZM37.6556 19.2567C37.6556 22.6804 37.3969 26.2062 37.3724 26.5299C37.273 27.4216 36.8685 29.4698 36.2225 30.2811C35.2264 31.5471 34.2032 31.6726 33.4561 31.764C33.3729 31.7738 33.2896 31.7846 33.2065 31.7964C28.0918 32.2236 20.4073 32.2892 20.0533 32.2917C19.6563 32.285 10.2233 32.1182 7.26315 31.8006C7.11143 31.772 6.94752 31.7502 6.77487 31.7276C5.8987 31.6116 4.69934 31.4529 3.77716 30.2811L3.75544 30.2543C3.12068 29.4903 2.72795 27.5749 2.6281 26.5405C2.60951 26.2959 2.34404 22.7283 2.34404 19.2567V15.7989C2.34404 12.3792 2.60225 8.8572 2.62725 8.52687C2.74599 7.47659 3.15794 5.55239 3.77716 4.77459C4.80371 3.47015 5.8862 3.32566 6.60214 3.23008C6.6705 3.22087 6.73424 3.21248 6.79315 3.20363C11.9823 2.77421 19.7221 2.7104 19.9998 2.70796C20.2776 2.71004 28.0146 2.77421 33.1577 3.20363C33.2208 3.21284 33.2898 3.22196 33.364 3.23188C34.1004 3.32882 35.2133 3.47548 36.2348 4.73406L36.2442 4.7457C36.879 5.5097 37.2717 7.45863 37.3715 8.51378C37.3892 8.74474 37.6556 12.32 37.6556 15.7989V19.2567Z" fill="#008738"/>
</svg>
