<svg width="35" height="35" viewBox="0 0 35 35" fill="none" xmlns="http://www.w3.org/2000/svg">
<path d="M24.5733 0H10.4267C4.67739 0 0 4.67739 0 10.4267V24.5733C0 30.3226 4.67739 35 10.4267 35H24.5733C30.3226 35 35 30.3226 35 24.5733V10.4267C34.9999 4.67739 30.3225 0 24.5733 0ZM31.479 24.5733C31.479 28.3872 28.3872 31.479 24.5733 31.479H10.4267C6.61281 31.479 3.521 28.3872 3.521 24.5733V10.4267C3.521 6.61275 6.61281 3.521 10.4267 3.521H24.5733C28.3872 3.521 31.479 6.61275 31.479 10.4267V24.5733Z" fill="#008738"/>
<path d="M17.4995 8.44727C12.5081 8.44727 8.44727 12.5081 8.44727 17.4994C8.44727 22.4908 12.5081 26.5517 17.4995 26.5517C22.4909 26.5517 26.5518 22.4909 26.5518 17.4994C26.5518 12.508 22.4909 8.44727 17.4995 8.44727ZM17.4995 23.0308C14.4447 23.0308 11.9683 20.5544 11.9683 17.4995C11.9683 14.4447 14.4447 11.9683 17.4995 11.9683C20.5544 11.9683 23.0308 14.4447 23.0308 17.4995C23.0308 20.5543 20.5543 23.0308 17.4995 23.0308Z" fill="#008738"/>
<path d="M26.5695 10.6849C27.7675 10.6849 28.7386 9.71375 28.7386 8.51578C28.7386 7.31782 27.7675 6.34668 26.5695 6.34668C25.3715 6.34668 24.4004 7.31782 24.4004 8.51578C24.4004 9.71375 25.3715 10.6849 26.5695 10.6849Z" fill="#008738"/>
</svg>
