<svg width="40" height="40" viewBox="0 0 40 40" fill="none" xmlns="http://www.w3.org/2000/svg">
<circle cx="20" cy="20" r="19" stroke="#131987"/>
<path d="M24.4642 26.9296H15.5359C14.3021 26.9296 13.2942 25.9216 13.2942 24.6879V15.7595C13.2942 14.5258 14.3021 13.5178 15.5359 13.5178H24.4642C25.698 13.5178 26.706 14.5258 26.706 15.7595V24.6879C26.706 25.9271 25.7035 26.9296 24.4642 26.9296Z" stroke="#131987"/>
<path d="M17.5687 22.6604C18.2187 23.3103 19.0834 23.6683 20.0032 23.6683C20.9231 23.6683 21.7823 23.3103 22.4377 22.6604C23.0877 22.0105 23.4457 21.1457 23.4457 20.2259C23.4457 19.3061 23.0877 18.4413 22.4377 17.7914C21.7878 17.1415 20.9231 16.7834 20.0032 16.7834C19.0834 16.7834 18.2187 17.1415 17.5687 17.7914C16.9188 18.4413 16.5608 19.3061 16.5608 20.2259C16.5608 21.1457 16.9188 22.0105 17.5687 22.6604Z" stroke="#131987"/>
<path d="M24.1163 16.6708C24.4813 16.6708 24.7773 16.3749 24.7773 16.0098C24.7773 15.6448 24.4813 15.3489 24.1163 15.3489C23.7512 15.3489 23.4553 15.6448 23.4553 16.0098C23.4553 16.3749 23.7512 16.6708 24.1163 16.6708Z" stroke="#131987"/>
</svg>
