<svg width="40" height="40" viewBox="0 0 40 40" fill="none" xmlns="http://www.w3.org/2000/svg">
<circle cx="20" cy="20" r="19" stroke="#131987"/>
<path d="M15.71 17.5459H12.4404V27.9723H15.71V17.5459Z" fill="#131987" stroke="#131987"/>
<path d="M24.5544 17.32C24.4338 17.3049 24.3058 17.2974 24.1777 17.2899C22.3471 17.2145 21.315 18.2994 20.9534 18.7664C20.8554 18.8945 20.8102 18.9698 20.8102 18.9698V17.5761H17.6838V28.0025H20.8102H20.9534C20.9534 26.9403 20.9534 25.8856 20.9534 24.8234C20.9534 24.2508 20.9534 23.6783 20.9534 23.1057C20.9534 22.3976 20.9006 21.6442 21.2547 20.9963C21.5561 20.4539 22.0985 20.1827 22.7087 20.1827C24.5167 20.1827 24.5544 21.8175 24.5544 21.9682C24.5544 21.9757 24.5544 21.9832 24.5544 21.9832V28.0477H27.8239V21.245C27.8239 18.9171 26.6412 17.546 24.5544 17.32Z" fill="#131987" stroke="#131987"/>
<path d="M14.0752 16.1973C15.1237 16.1973 15.9736 15.3473 15.9736 14.2988C15.9736 13.2504 15.1237 12.4004 14.0752 12.4004C13.0267 12.4004 12.1768 13.2504 12.1768 14.2988C12.1768 15.3473 13.0267 16.1973 14.0752 16.1973Z" fill="#131987" stroke="#131987"/>
</svg>
