<svg width="90" height="90" viewBox="0 0 90 90" fill="none" xmlns="http://www.w3.org/2000/svg">
<path d="M30.5613 50.8764C29.8863 50.6016 29.1199 50.9203 28.846 51.5953C28.7924 51.7189 27.4864 54.6316 23.0973 54.6316C18.6583 54.6316 17.0741 51.6674 16.9971 51.5169C16.841 51.2059 16.5683 50.9692 16.2384 50.8584C15.9084 50.7476 15.5481 50.7718 15.2359 50.9256C14.9238 51.0794 14.685 51.3504 14.5718 51.6795C14.4586 52.0086 14.4801 52.3691 14.6316 52.6824C14.723 52.869 16.9414 57.2683 23.0973 57.2683C29.3164 57.2683 31.2061 52.7906 31.2834 52.5997C31.5576 51.9254 31.2354 51.1502 30.5611 50.8764H30.5613ZM18.2496 44.9314C18.5559 45.0959 18.9149 45.1325 19.2482 45.0334C19.5815 44.9342 19.8621 44.7072 20.0287 44.402C20.1118 44.2502 20.1642 44.0834 20.1829 43.9114C20.2015 43.7393 20.1861 43.5652 20.1375 43.3991C20.0888 43.2329 20.0079 43.078 19.8993 42.9432C19.7908 42.8084 19.6567 42.6962 19.5048 42.6132C19.3957 42.5528 16.789 41.163 13.3676 42.3153C13.2035 42.3705 13.052 42.4575 12.9215 42.5713C12.7911 42.6851 12.6843 42.8235 12.6074 42.9786C12.5304 43.1336 12.4848 43.3023 12.473 43.475C12.4613 43.6477 12.4836 43.8211 12.5389 43.9851C12.5941 44.1492 12.6811 44.3008 12.7949 44.4312C12.9087 44.5616 13.0471 44.6684 13.2021 44.7453C13.3572 44.8223 13.5259 44.8679 13.6986 44.8797C13.8713 44.8915 14.0446 44.8691 14.2087 44.8139C16.4835 44.0476 18.1583 44.8847 18.2496 44.9313V44.9314ZM32.512 42.3153C29.089 41.163 26.4832 42.5528 26.374 42.6132C25.7354 42.962 25.4944 43.7667 25.8439 44.4053C25.957 44.6133 26.1242 44.787 26.3277 44.908C26.5312 45.0291 26.7635 45.0931 27.0003 45.0933C27.2125 45.0933 27.4275 45.0418 27.6279 44.9327C27.6978 44.8963 29.3802 44.0429 31.6708 44.8139C31.8355 44.8717 32.0101 44.8962 32.1844 44.886C32.3586 44.8759 32.5291 44.8312 32.686 44.7546C32.8429 44.678 32.983 44.571 33.0981 44.4398C33.2133 44.3087 33.3013 44.156 33.357 43.9905C33.4127 43.8251 33.435 43.6502 33.4226 43.4761C33.4101 43.302 33.3633 43.1321 33.2846 42.9762C33.206 42.8203 33.0972 42.6816 32.9646 42.5682C32.832 42.4547 32.6781 42.3687 32.512 42.3151V42.3153ZM50.3304 16.6004C48.1736 16.6004 46.4056 18.2538 46.3054 20.3646C46.2544 21.4351 46.6397 22.4395 47.3119 23.192C46.6397 23.9447 46.2546 24.9493 46.3054 26.0196C46.3753 27.4967 47.2625 28.7506 48.5286 29.3699C48.2397 29.9227 48.0892 30.555 48.0913 31.2458C48.0968 32.8821 49.1548 34.2808 50.6313 34.8198C50.3998 35.3018 50.2728 35.8353 50.2604 36.408C50.2376 37.4291 50.6257 38.4006 51.3529 39.1437C52.091 39.8983 53.116 40.3309 54.1654 40.3309H72.8422C75.998 40.3309 78.5646 37.7634 78.5646 34.6074V25.6139C78.5646 22.6256 75.5435 19.8798 72.2792 17.3569C70.6469 16.0962 69.3814 14.423 68.62 12.5175L66.4208 7.01817C65.6916 5.12571 63.1612 5.78067 62.3277 5.99635C61.3897 6.23946 60.6112 6.84503 60.1339 7.70266C59.4006 9.02173 59.3798 10.8235 60.0714 13.0579L60.8047 15.889C59.0731 16.393 56.8456 16.555 55.2359 16.6009H50.3306L50.3304 16.6004ZM55.2908 19.2371C57.1646 19.1849 59.8337 18.9815 61.9053 18.3086C63.0684 17.931 63.7399 16.7088 63.4337 15.5264L62.616 12.3665C62.6104 12.3455 62.6044 12.3247 62.598 12.3039C62.2287 11.1202 61.8091 8.85421 62.9888 8.5487C63.5641 8.39964 63.9116 8.35306 64.1101 8.34128L66.1713 13.4966C67.112 15.8445 68.664 17.8979 70.6661 19.4436C72.1054 20.5555 75.9279 23.5095 75.9279 25.6139V34.6083C75.9279 36.3099 74.5436 37.6947 72.8422 37.6947H54.1653C53.491 37.6947 52.8812 37.1441 52.8961 36.4663C52.901 36.2452 52.9155 35.5709 54.0717 35.1466C54.3816 35.0328 54.6416 34.8136 54.806 34.5273C54.9703 34.241 55.0287 33.906 54.9707 33.5811C54.913 33.2558 54.7425 32.9612 54.4892 32.7491C54.2359 32.537 53.9159 32.4209 53.5855 32.4212H51.9785C51.3146 32.4212 50.7282 31.8679 50.7282 31.2368C50.7282 30.6031 51.1114 29.7831 52.0191 29.7831L53.9273 29.7845C54.2769 29.7845 54.6122 29.6456 54.8595 29.3984C55.1067 29.1511 55.2456 28.8158 55.2456 28.4662C55.2456 27.7377 54.6559 27.1478 53.9273 27.1478H50.3308C49.5965 27.1478 48.9725 26.5862 48.9394 25.8954C48.9078 25.2335 49.3727 24.6478 50.0203 24.5318C50.2503 24.4905 50.5936 24.5222 53.472 24.5111C53.8216 24.5111 54.157 24.3722 54.4042 24.1249C54.6514 23.8777 54.7903 23.5424 54.7903 23.1927C54.7903 22.4643 54.2006 21.8744 53.472 21.8744H50.2564C49.4909 21.8744 48.9045 21.2303 48.9394 20.4901C48.9725 19.7993 49.5965 19.2376 50.3306 19.2376H55.2546C55.2669 19.2369 55.2792 19.2369 55.291 19.2369L55.2908 19.2371Z" fill="#008738"/>
<path d="M76.5067 0H56.25C55.9003 0 55.565 0.138898 55.3178 0.386139C55.0705 0.633379 54.9316 0.968709 54.9316 1.31836C54.9316 1.66801 55.0705 2.00334 55.3178 2.25058C55.565 2.49782 55.9003 2.63672 56.25 2.63672H76.5067C82.4929 2.63672 87.3633 7.49197 87.3633 13.4596V42.6976C87.3633 48.6647 82.4929 53.5199 76.5067 53.5199H61.2598C60.532 53.5199 59.9414 54.1106 59.9414 54.8383C59.9414 57.3342 59.3756 60.4907 55.227 61.6347C56.6675 59.4072 56.5295 56.3379 56.0797 54.521C56.0086 54.2353 55.844 53.9816 55.6121 53.8002C55.3801 53.6188 55.0942 53.5201 54.7998 53.5199H39.3585C39.6714 52.4767 39.8837 51.4059 39.9923 50.3221C43.795 51.0089 45.8789 46.9612 45.8789 42.8906C45.8789 40.0507 44.9067 37.8905 43.2519 36.8488C44.0524 35.1501 44.393 32.8834 43.0293 30.2214C43.2313 23.8644 40.6369 20.5761 38.4006 18.9309C36.5597 17.5767 34.67 17.107 33.7658 16.9506C33.0318 16.2323 31.2492 14.8013 28.125 14.0398V13.4597C28.125 7.4918 32.9947 2.63672 38.9816 2.63672H50.625C50.9747 2.63672 51.31 2.49782 51.5572 2.25058C51.8045 2.00334 51.9434 1.66801 51.9434 1.31836C51.9434 0.968709 51.8045 0.633379 51.5572 0.386139C51.31 0.138898 50.9747 0 50.625 0L38.9816 0C31.5411 0 25.4883 6.03844 25.4883 13.4596V13.6127C23.2367 13.4163 20.495 13.5722 17.1977 14.3668C15.1219 14.8672 13.2289 15.5141 11.572 16.2907C11.4152 16.3641 11.2744 16.4676 11.1576 16.5955C11.0409 16.7233 10.9504 16.8729 10.8915 17.0356C10.8326 17.1984 10.8063 17.3712 10.8142 17.5442C10.8221 17.7171 10.864 17.8868 10.9375 18.0436C11.246 18.7035 12.0308 18.9872 12.6905 18.6782C14.1875 17.9771 15.9117 17.3886 17.8158 16.9298C21.4509 16.0545 24.2729 16.027 26.4132 16.3691C26.5209 16.402 26.6323 16.4209 26.7448 16.4254C30.4624 17.1063 31.9943 18.8958 32.0869 19.0076C32.2 19.1511 32.3416 19.2695 32.5028 19.3554C32.664 19.4412 32.8413 19.4926 33.0235 19.5063C33.0421 19.5082 34.9812 19.6889 36.8379 21.0546C39.3977 22.9373 40.5896 26.1035 40.381 30.4645C40.3693 30.7112 40.4271 30.9562 40.5478 31.1716C41.6252 33.0956 41.5626 34.8701 40.3583 36.5975C39.5151 37.806 38.3737 38.5847 38.0656 38.7817C37.931 38.8243 37.5966 38.906 37.3329 38.7838C37.0348 38.645 36.8467 38.231 36.7418 37.9069C35.9109 35.3457 34.795 34.3151 33.8112 33.406C32.8347 32.5037 31.9915 31.7245 31.2237 29.1901C31.1489 28.9428 31.0031 28.723 30.8044 28.5579C30.6057 28.3928 30.3628 28.2898 30.1061 28.2616C29.8491 28.2331 29.5894 28.281 29.3594 28.3992C29.1295 28.5175 28.9394 28.7008 28.813 28.9264C28.3103 29.8211 26.7792 32.5422 20.2642 32.3088C14.8034 32.1096 10.3175 34.0425 8.55545 37.3481C8.06396 38.2695 7.63559 38.597 7.44047 38.678C3.10096 36.1422 4.88074 32.2682 5.09906 31.8343C5.24667 31.5482 5.28449 31.218 5.20541 30.9059C5.1924 30.8551 3.97354 25.7794 8.37914 21.5497C8.63136 21.3076 8.77706 20.9752 8.78419 20.6257C8.79133 20.2761 8.65932 19.938 8.4172 19.6858C8.17508 19.4336 7.84268 19.2879 7.49313 19.2808C7.14358 19.2736 6.80552 19.4057 6.5533 19.6478C1.85045 24.1624 2.28656 29.4653 2.55357 31.0741C2.29887 31.7065 1.90547 32.9295 1.93482 34.4092C1.95064 35.1728 2.08195 36.055 2.44723 36.965C0.890508 38.0461 0 40.146 0 42.8906C0 47.0285 2.14031 50.9971 5.88516 50.3221C6.27381 54.2526 7.99189 57.8958 10.8202 60.7221C12.6589 62.5625 14.843 63.9316 17.2266 64.7713V67.1919L12.372 68.8212C12.2072 68.8767 12.055 68.9643 11.9242 69.079C11.7933 69.1936 11.6865 69.333 11.6098 69.4891C5.35377 71.6453 1.05469 78.1794 1.05469 85.7113V88.6816C1.05469 89.0313 1.19359 89.3666 1.44083 89.6139C1.68807 89.8611 2.0234 90 2.37305 90H43.5059C43.8555 90 44.1908 89.8611 44.4381 89.6139C44.6853 89.3666 44.8242 89.0313 44.8242 88.6816V85.7113C44.8242 83.6933 44.5159 81.7184 43.9084 79.8418C43.8551 79.677 43.7698 79.5244 43.6575 79.3927C43.5452 79.2609 43.4081 79.1525 43.2539 79.0738C43.0997 78.995 42.9315 78.9474 42.7589 78.9337C42.5863 78.92 42.4127 78.9404 42.248 78.9938C41.9153 79.1016 41.639 79.3372 41.48 79.6487C41.321 79.9602 41.2922 80.3221 41.4 80.6548C41.9224 82.2684 42.1875 83.9691 42.1875 85.7113V87.3633H26.9954L31.2912 84.2411C31.4594 84.1188 31.5964 83.9585 31.6908 83.7731C31.7852 83.5878 31.8344 83.3828 31.8343 83.1748V80.4674L33.8611 78.9978C34.0297 78.8755 34.167 78.715 34.2616 78.5294C34.3563 78.3438 34.4056 78.1385 34.4057 77.9302V72.38C36.1533 73.1805 37.7223 74.4427 39.0076 76.0968C39.1309 76.2554 39.2889 76.3838 39.4695 76.472C39.65 76.5602 39.8484 76.6059 40.0493 76.6056C40.2959 76.6053 40.5375 76.5358 40.7466 76.4051C40.9557 76.2744 41.124 76.0877 41.2323 75.8661C41.3406 75.6446 41.3847 75.3971 41.3595 75.1518C41.3342 74.9065 41.2407 74.6732 41.0896 74.4783C39.2467 72.1081 36.9018 70.3985 34.2684 69.4884C34.1918 69.3324 34.0849 69.193 33.9541 69.0785C33.8233 68.9639 33.671 68.8765 33.5062 68.8212L28.6523 67.1917V64.7624C32.889 63.26 36.3647 60.1358 38.3291 56.1401C38.5476 56.1505 38.7652 56.1567 38.9809 56.1567H53.6806C53.739 56.7011 53.7725 57.4098 53.6882 58.1411C53.4767 59.9875 52.6472 61.088 51.153 61.5062C50.3504 61.7309 49.8312 62.5266 49.9453 63.3568C50.053 64.1408 50.706 64.7102 51.4971 64.7102C54.7443 64.7102 57.3288 64.0118 59.1792 62.6337C61.1409 61.1719 62.2615 58.9973 62.5205 56.1567H76.5074C83.9472 56.1567 90 50.1189 90 42.6976V13.4596C90 6.03844 83.9472 0 76.5067 0ZM40.0781 47.6202V40.5911C40.6928 40.132 41.2609 39.6136 41.7741 39.0433C42.8432 39.6606 43.2422 41.349 43.2422 42.8906C43.2422 45.2348 42.2293 48.4601 40.0781 47.6202ZM2.63672 42.8906C2.63672 41.4823 2.97598 39.9139 3.87598 39.1978C4.38416 39.7457 5.01592 40.2766 5.80078 40.7675V47.6202C3.64395 48.4622 2.63672 45.2348 2.63672 42.8906ZM14.11 71.0191L17.1448 70.0001L20.8336 85.5211L16.6813 82.5033V79.795C16.6813 79.5868 16.6319 79.3816 16.5373 79.1961C16.4427 79.0107 16.3055 78.8502 16.1369 78.728L14.11 77.258V71.0191ZM20.1846 71.3885H25.6943L22.9395 82.9793L20.1846 71.3885ZM3.69141 85.7111C3.69141 79.7237 6.81697 74.4977 11.4732 72.3779V77.9302C11.4733 78.1384 11.5226 78.3436 11.6172 78.5291C11.7119 78.7145 11.8491 78.8749 12.0176 78.9971L14.0446 80.4674V83.1748C14.0446 83.3827 14.0938 83.5878 14.1882 83.7731C14.2826 83.9584 14.4195 84.1188 14.5877 84.2411L18.8835 87.3633H3.69141V85.7111ZM31.7689 71.0191V77.258L29.7422 78.728C29.5736 78.8502 29.4364 79.0106 29.3417 79.1961C29.247 79.3816 29.1977 79.5868 29.1976 79.795V82.5033L25.0453 85.5211L28.7341 70.0001L31.7689 71.0191ZM26.0156 68.7516H19.8633V65.4674C21.8977 65.8346 23.9815 65.8336 26.0156 65.4646V68.7516ZM12.6844 58.8577C9.94606 56.121 8.4375 52.4788 8.4375 48.6035V41.124C9.19213 40.8164 10.0723 40.1077 10.8819 38.588C12.1468 36.2157 15.7929 34.7855 20.1688 34.9441C24.3429 35.0944 27.4918 34.175 29.5696 32.2058C30.3587 33.8055 31.2286 34.6097 32.0224 35.3424C32.9122 36.1651 33.6154 36.8146 34.2341 38.7213C34.7272 40.2409 35.6157 40.9076 36.2749 41.1994C36.6764 41.3773 37.074 41.4555 37.4414 41.4768V48.6035C37.4414 61.4384 21.7921 67.9711 12.6844 58.8579V58.8577Z" fill="#008738"/>
</svg>
