<svg width="20" height="21" viewBox="0 0 20 21" fill="none" xmlns="http://www.w3.org/2000/svg">
<path d="M8.04938 16.5928C9.837 16.5928 11.5735 15.9963 12.9838 14.8977L18.3045 20.2191C18.7019 20.603 19.3353 20.592 19.7192 20.1945C20.0936 19.8067 20.0936 19.1919 19.7192 18.8042L14.3985 13.4828C17.1243 9.97344 16.4895 4.91858 12.9807 2.19241C9.47196 -0.533763 4.41791 0.101068 1.69215 3.61039C-1.03361 7.11971 -0.398872 12.1746 3.10992 14.9007C4.52253 15.9983 6.2606 16.5937 8.04938 16.5928ZM3.77429 4.27179C6.13538 1.9103 9.96347 1.91025 12.3246 4.2717C14.6857 6.63315 14.6858 10.4618 12.3247 12.8233C9.9636 15.1848 6.13551 15.1848 3.77438 12.8234C1.41329 10.4792 1.39929 6.66436 3.74318 4.30291L3.77429 4.27179Z" fill="#131889"/>
</svg>
