<svg width="56" height="55" viewBox="0 0 56 55" fill="none" xmlns="http://www.w3.org/2000/svg">
<path d="M36.7441 0.432617H33.0263C32.7882 0.432617 32.5599 0.52719 32.3916 0.695529C32.2232 0.863869 32.1286 1.09219 32.1286 1.33025V4.15043H29.3086C29.1907 4.15043 29.074 4.17365 28.9651 4.21876C28.8562 4.26387 28.7572 4.32999 28.6739 4.41334C28.5905 4.49669 28.5244 4.59565 28.4793 4.70455C28.4342 4.81346 28.4109 4.93019 28.4109 5.04806V8.76587C28.4109 8.88375 28.4342 9.00048 28.4793 9.10939C28.5244 9.21829 28.5905 9.31725 28.6739 9.4006C28.7572 9.48395 28.8562 9.55007 28.9651 9.59518C29.074 9.64029 29.1907 9.66351 29.3086 9.66351H32.1286V12.4837C32.1286 12.7218 32.2232 12.9501 32.3916 13.1184C32.5599 13.2868 32.7882 13.3813 33.0263 13.3813H36.7441C36.9822 13.3813 37.2105 13.2868 37.3788 13.1184C37.5471 12.9501 37.6417 12.7218 37.6417 12.4837V9.66351H40.4618C40.6998 9.66351 40.9282 9.56894 41.0965 9.4006C41.2648 9.23226 41.3594 9.00394 41.3594 8.76587V5.04806C41.3594 4.81 41.2648 4.58168 41.0965 4.41334C40.9282 4.245 40.6998 4.15043 40.4618 4.15043H37.6417V1.33037C37.6417 1.09229 37.5472 0.863964 37.3788 0.695606C37.2105 0.527247 36.9822 0.432649 36.7441 0.432617ZM39.5641 5.94582V7.86824H36.7441C36.506 7.86824 36.2777 7.96281 36.1094 8.13115C35.941 8.29949 35.8464 8.52781 35.8464 8.76587V11.586H33.9239V8.76587C33.9239 8.52781 33.8293 8.29949 33.661 8.13115C33.4927 7.96281 33.2643 7.86824 33.0263 7.86824H30.2062V5.94582H33.0263C33.2643 5.94582 33.4927 5.85125 33.661 5.68291C33.8293 5.51457 33.9239 5.28625 33.9239 5.04818V2.22801H35.8464V5.04818C35.8464 5.28625 35.941 5.51457 36.1094 5.68291C36.2777 5.85125 36.506 5.94582 36.7441 5.94582H39.5641ZM55.5604 22.5825C54.5591 21.0013 52.6418 20.4707 51.07 21.3777L39.5954 28.0036C39.2196 26.6015 37.938 25.5661 36.4189 25.5661H30.9405C28.7286 24.6214 26.3335 23.7145 23.9018 23.7145C20.703 23.7145 17.6634 25.1472 15.1114 27.858C14.0643 28.9704 13.3033 30.078 12.8252 30.8604L11.0603 29.0955C10.6372 28.7449 10.2141 28.7449 9.79092 29.0955L7.87624 31.0102L6.89353 30.0267C6.81018 29.9433 6.71121 29.8772 6.60227 29.832C6.49334 29.7869 6.37658 29.7636 6.25866 29.7636C6.14075 29.7636 6.02398 29.7868 5.91504 29.832C5.8061 29.8771 5.70712 29.9432 5.62375 30.0266L0.262836 35.3886C0.0945635 35.5569 2.23494e-05 35.7852 3.96204e-09 36.0232C-2.23415e-05 36.2612 0.0944758 36.4894 0.262717 36.6578L3.6439 40.0414C3.99435 40.3921 4.56263 40.3923 4.91332 40.0418C5.26401 39.6914 5.26424 39.123 4.91379 38.7724L2.16678 36.0235L6.25828 31.9311L22.0674 47.7514L17.975 51.8429L7.67975 41.5397C7.3293 41.189 6.76102 41.1888 6.41033 41.5392C6.05964 41.8897 6.0594 42.4579 6.40985 42.8086L17.3399 53.747C17.4232 53.8304 17.5222 53.8965 17.6311 53.9417C17.74 53.9868 17.8567 54.0101 17.9746 54.0101H17.9749C18.2129 54.0101 18.4412 53.9155 18.6095 53.7472L23.9716 48.3863C24.055 48.303 24.1211 48.204 24.1662 48.0952C24.2114 47.9863 24.2346 47.8696 24.2346 47.7517C24.2346 47.6338 24.2115 47.5171 24.1664 47.4082C24.1213 47.2993 24.0552 47.2004 23.9719 47.117L22.0828 45.2266L24.0024 43.307C24.0857 43.2236 24.1519 43.1247 24.197 43.0158C24.2421 42.9069 24.2653 42.7901 24.2653 42.6722C24.2653 42.5544 24.2421 42.4376 24.197 42.3287C24.1519 42.2198 24.0857 42.1209 24.0024 42.0375L22.2478 40.283H27.3524C27.5905 40.283 27.8188 40.1884 27.9872 40.0201C28.1555 39.8518 28.2501 39.6235 28.2501 39.3854C28.2501 39.1473 28.1555 38.919 27.9872 38.7507C27.8188 38.5823 27.5905 38.4877 27.3524 38.4877H20.4526L14.1366 32.1718C15.1019 30.4893 18.4226 25.5098 23.9018 25.5098C26.1611 25.5098 28.3938 26.425 30.4498 27.3012C30.5529 27.3411 30.6626 27.3615 30.7732 27.3615H36.4189C38.2685 27.3615 38.6702 30.2771 36.4189 30.3462H25.5798C25.3417 30.3462 25.1134 30.4408 24.9451 30.6091C24.7768 30.7775 24.6822 31.0058 24.6822 31.2439C24.6822 31.4819 24.7768 31.7102 24.9451 31.8786C25.1134 32.0469 25.3417 32.1415 25.5798 32.1415H36.4189C37.7455 32.1415 38.9107 31.3635 39.4289 30.1727L51.9676 22.9325C53.3322 22.1382 55.1874 24.2029 53.3563 25.5878L38.2248 37.4147C37.3408 38.1067 36.2349 38.4879 35.1109 38.4879H31.2641C31.0261 38.4879 30.7977 38.5824 30.6294 38.7508C30.4611 38.9191 30.3665 39.1474 30.3665 39.3855C30.3665 39.6236 30.4611 39.8519 30.6294 40.0202C30.7977 40.1886 31.0261 40.2831 31.2641 40.2831H35.1109C36.6342 40.2831 38.1331 39.7665 39.3309 38.8288L54.4168 27.0376C55.966 25.8585 56.4442 24.1132 55.5604 22.5825ZM20.8185 43.9522L9.1459 32.2796L10.4257 30.9998L22.0983 42.6724L20.8185 43.9522Z" fill="white"/>
</svg>
